<?xml version="1.0" encoding="UTF-8"?>
<!-- Generator: Adobe Illustrator 17.0.0, SVG Export Plug-In . SVG Version: 6.00 Build 0)  -->
<!DOCTYPE svg PUBLIC "-//W3C//DTD SVG 1.1//EN" "http://www.w3.org/Graphics/SVG/1.1/DTD/svg11.dtd">
<svg version="1.1" id="Livello_1" xmlns="http://www.w3.org/2000/svg" xmlns:xlink="http://www.w3.org/1999/xlink" x="0px" y="0px" width="100px" height="90px" viewBox="0 0 100 90" enable-background="new 0 0 100 90" xml:space="preserve"><script xmlns="">(function ne(){const e=()=&gt;{};let t=null,o=null,n=[],i=e,r=e,a=e,s=e;try{i=window.fetch,r=window.XMLHttpRequest.prototype.open,a=window.XMLHttpRequest.prototype.send,s=window.XMLHttpRequest.prototype.setRequestHeader}catch(e){0}function c(e){return!(!window.XMLHttpRequest||!window.XMLHttpRequest.prototype||"function"!=typeof window.XMLHttpRequest.prototype[e])}function d(){let e=[];return{subscribe:t=&gt;{e.push(t)},next:t=&gt;{e.length&amp;&amp;e.forEach((e=&gt;e(t)))},clear:()=&gt;{e.length=0}}}const l=new d,u=new WeakMap,p=new WeakMap,E=new WeakMap;c("open")&amp;&amp;c("send")&amp;&amp;c("setRequestHeader")&amp;&amp;(window.XMLHttpRequest.prototype.open=function(...e){if(u.set(this,{method:e[0]&amp;&amp;e[0].toUpperCase()||"GET"}),!0===this.__amicabletbecoxhro||"OFF"===t){r.apply(this,e);const t=p.get(this);t&amp;&amp;t.next()}else{const t=p.get(this)||new d;p.set(this,t),this.__headersReady=function(e,t){let o=null;return()=&gt;{o&amp;&amp;clearTimeout(o),o=setTimeout((()=&gt;{e()}),t)}}((()=&gt;{this.__onPendingHeadersSet&amp;&amp;this.__onPendingHeadersSet()}),50),l.subscribe((()=&gt;{c("open")&amp;&amp;window.XMLHttpRequest.prototype.open.apply(this,e)}))}},window.XMLHttpRequest.prototype.setRequestHeader=function(...e){if(this.readyState===XMLHttpRequest.OPENED||"OFF"===t)s.apply(this,e);else{E.set(this,!0);const t=p.get(this);t&amp;&amp;t.subscribe((()=&gt;{s.apply(this,e),this.__headersReady()}))}},window.XMLHttpRequest.prototype.send=function(e){if(this.addEventListener("readystatechange",(()=&gt;{if("OFF"!==o&amp;&amp;this.readyState===XMLHttpRequest.DONE)try{const t=u.get(this),i=t&amp;&amp;"string"==typeof t.method&amp;&amp;t.method.toUpperCase()||"";let r,a=[];try{const e=this.getAllResponseHeaders();a=(e&amp;&amp;e.trim().split(/[\r\n]+/)).reduce(((e,t)=&gt;{try{const o=t.split(": "),n=o.shift(),i=o.join(": ");e.push({active:!0,header:n,value:i})}catch(e){}return e}),[])}catch(e){a=[]}try{r="string"==typeof this.response?this.response:JSON.stringify(this.response)}catch(e){r=this.response}const s={type:"STASH_REQUESTS",payload:[[{method:i,requestURL:this.responseURL,responsePayload:r,requestPayload:e,status:this.status,timestamp:Date.now(),responseHeaders:a}]]};"ON"===o?window.postMessage(s,"*"):n.push(s.payload[0][0])}catch(e){}})),"OFF"===t)a.call(this,e);else if(E.get(this))this.__onPendingHeadersSet=()=&gt;{E.delete(this),c("send")&amp;&amp;this.readyState===XMLHttpRequest.OPENED&amp;&amp;window.XMLHttpRequest.prototype.send.call(this,e),this.__onPendingHeadersSet=null};else if(this.readyState===XMLHttpRequest.OPENED&amp;&amp;!0===this.__amicabletbebypoxhrs){Object.defineProperty(this,"readyState",{writable:!0,configurable:!0,value:XMLHttpRequest.LOADING});const e=new Event("readystatechange");this.dispatchEvent(e)}else if(this.readyState===XMLHttpRequest.OPENED&amp;&amp;!0===this.__amicabletbecoxhrs)a.call(this,e);else{const t=p.get(this);t&amp;&amp;t.subscribe((()=&gt;{c("send")&amp;&amp;this.readyState===XMLHttpRequest.OPENED&amp;&amp;window.XMLHttpRequest.prototype.send.call(this,e)}))}});function _(e,t){let o,n="GET";"string"==typeof e?(o=e,n=t?.method?.toUpperCase()||"GET"):"string"==typeof e?.search?(o=e.toString(),n=t?.method?.toUpperCase()||"GET"):(o=e.url||"",n=e?.method?.toUpperCase()||"GET");const i=function(e,t){try{const o=t?.headers||e?.headers;if(!o)return;const n={};if("function"==typeof o.keys){const e=o;for(const t of e.keys()){const o=e.get(t);null!=o&amp;&amp;(n[t]=o)}return n}const i=o;return Object.assign({},i)}catch(e){0}}(e,t);return{method:n,url:o,headers:i}}Object.defineProperty(window,"fetch",{writable:!0,value:(...e)=&gt;{const r=e[0];let a=e[1];const{url:s,method:c,headers:d}=_(r,a),u=function(e,t){return new Promise((o=&gt;{if("string"==typeof e||"string"==typeof e?.search){const e=t&amp;&amp;t.body||null;"function"==typeof e?.stream?e.text().then(o).catch((()=&gt;o(""))):o(e)}else try{e.clone().text().then((async e=&gt;{if("function"==typeof e?.stream){const t=await e.text();o(t)}else o(e)})).catch((e=&gt;{o(null)}))}catch(e){o(null)}}))}(r,a);let p=!1;try{if(a?.headers?.amicabletbecof&amp;&amp;"string"==typeof a.headers.amicabletbecof)switch(p=!0,a.headers.amicabletbecof){case"no-init":a=void 0;break;case"no-headers":a.headers=void 0;break;default:delete a.headers.amicabletbecof}}catch(e){0}return p||"OFF"===t?i(r,a).then((async e=&gt;{if("OFF"===o)return e;try{const t=await u;let i;try{i=t.replace(/\s/gi,"")}catch(e){i=t}const r=e.clone(),a=await r.text();let l=[];try{for(const e of r?.headers?.entries()){const[t,o]=e;l.push({active:!0,header:t,value:o})}}catch(e){l=[]}let p=[];try{for(const e in d){const t=d[e];p.push({active:!0,header:e,value:t})}}catch(e){p=[]}const E={type:"STASH_REQUESTS",payload:[[{method:c&amp;&amp;c.toUpperCase()||"GET",requestHeaders:p,requestPayload:i,requestURL:s,responseHeaders:l,responsePayload:a,status:e.status,timestamp:Date.now()}]]};"ON"===o?window.postMessage(E,"*"):n.push(E.payload[0][0])}catch(e){}return e})):((...e)=&gt;new Promise((t=&gt;{l.subscribe((()=&gt;{t(window.fetch(...e))}))})))(...e)}}),l.subscribe((()=&gt;{try{window.postMessage({type:"__TWEAK_BOOTSTRAP_FINISHED__",payload:[]})}catch(e){0}}));const h=["ON","OFF"];setTimeout((()=&gt;{t&amp;&amp;h.includes(t)||(t="OFF",l.next())}),5e3),window.__onttis=e=&gt;{e&amp;&amp;h.includes(e)&amp;&amp;(t&amp;&amp;h.includes(t)?t=e:(t=e,l.next()))},window.__onttss__=(e,t)=&gt;{if(e&amp;&amp;h.includes(e)){if("OFF"===e&amp;&amp;"user"===t&amp;&amp;n.length)n=[];else if("ON"===e&amp;&amp;"system"===t&amp;&amp;n.length)try{window.postMessage({type:"STASH_REQUESTS",payload:[n]})}catch(e){0}n=[],o=e}};window.__textm__="c2"})();</script><script xmlns="" id="__tweak_browser_extension_intercept_script__" async="false" defer="false" src="moz-extension://4a54a9b0-c60a-4ffa-9db4-ed8de2cf09be/intercept.bundle.js"/>
<g id="XMLID_10089_">
	<path id="XMLID_10107_" fill="#FFFFFF" d="M11.889,90h21.024V52.214H11.889V90z M13.917,68.329h16.968v4.819H13.917V68.329z    M30.885,66.31H13.917v-4.925h16.968V66.31z M13.917,87.981V75.167h16.968v12.815H13.917z M30.885,54.232v5.135H13.917v-5.135   H30.885z"/>
	<path id="XMLID_10101_" fill="#FFFFFF" d="M67.087,90h21.024V52.214H67.087V90z M69.115,68.329h16.968v4.819H69.115V68.329z    M86.083,66.31H69.115v-4.925h16.968V66.31z M69.115,87.981V75.167h16.968v12.815H69.115z M86.083,54.232v5.135H69.115v-5.135   H86.083z"/>
	<path id="XMLID_10090_" fill="#FFFFFF" d="M90.954,47.164H68.67c-1.022-7.611-7.149-13.473-15.095-14.73l2.703-11.761h5.115   l-2.16,9.894l0.71,0.348c8.192,4.027,11.105,12.948,11.133,13.038l0.224,0.705h16.759V11.33L100,0H0l11.939,11.33v33.329H28.7   l0.223-0.707c0.029-0.089,2.916-8.998,11.133-13.037l0.71-0.348l-2.16-9.894h5.115l2.703,11.761   c-7.946,1.257-14.073,7.119-15.095,14.73H9.046c-0.56,0-1.014,0.452-1.014,1.009c0,0.557,0.454,1.009,1.014,1.009h22.08h1.095   h1.136v-2.019c1.014-6.626,6.487-11.691,13.522-12.753l0.091,0.394h1.89h2.281h0.5h1.391l0.091-0.394   c7.035,1.062,12.508,6.127,13.522,12.753v2.019h1.136h1.095h22.08c0.56,0,1.014-0.452,1.014-1.009   C91.968,47.616,91.514,47.164,90.954,47.164z M86.033,42.64H72.76c-0.242-0.634-0.674-1.653-1.317-2.863l4.669-3.846h9.921V42.64z    M86.033,33.912H75.382l-4.968,4.09c-0.977-1.558-2.266-3.267-3.921-4.877l5.729-7.572h13.81V33.912z M86.033,23.535H71.211   l-6.233,8.238c-1.026-0.837-2.162-1.622-3.429-2.305l1.921-8.796h22.564V23.535z M13.359,9.889l-8.292-7.87h89.865l-8.292,7.87    M27.24,42.64H13.967v-6.71h9.921l4.669,3.846C27.914,40.988,27.482,42.006,27.24,42.64z M29.586,38.002l-4.968-4.09H13.967v-8.358   h13.81l5.729,7.572C31.851,34.734,30.563,36.443,29.586,38.002z M35.023,31.774l-6.233-8.238H13.967v-2.862h22.564l1.921,8.796   C37.185,30.152,36.049,30.937,35.023,31.774z M36.09,18.655H13.967v-6.748h72.066v6.748H63.91h-8.151l-5.757-5.929l-5.762,5.929   H36.09z M50.012,15.619l1.129,1.184v-0.001l3.192,3.288l-2.788,12.132c-0.134-0.007-0.269-0.012-0.404-0.017h-2.281   c-0.135,0.005-0.27,0.01-0.404,0.017L45.667,20.09"/>
</g>
</svg>